<mxfile host="Electron" modified="2024-06-27T16:03:56.313Z" agent="Mozilla/5.0 (X11; Linux x86_64) AppleWebKit/537.36 (KHTML, like Gecko) draw.io/24.5.3 Chrome/124.0.6367.207 Electron/30.0.6 Safari/537.36" etag="3riLIHzPG_1s4PM2AnL6" version="24.5.3" type="device">
  <diagram id="6a731a19-8d31-9384-78a2-239565b7b9f0" name="Page-1">
    <mxGraphModel dx="678" dy="429" grid="1" gridSize="10" guides="1" tooltips="1" connect="1" arrows="1" fold="1" page="1" pageScale="1" pageWidth="827" pageHeight="1169" background="none" math="0" shadow="0">
      <root>
        <mxCell id="0" />
        <mxCell id="1" parent="0" />
        <mxCell id="8WeOQlOgX7OYJ_pLXAzu-2267" style="rounded=0;orthogonalLoop=1;jettySize=auto;html=1;endArrow=none;endFill=0;" edge="1" parent="1" source="8WeOQlOgX7OYJ_pLXAzu-2257" target="8WeOQlOgX7OYJ_pLXAzu-2265">
          <mxGeometry relative="1" as="geometry" />
        </mxCell>
        <mxCell id="8WeOQlOgX7OYJ_pLXAzu-2257" value="" style="shape=mxgraph.cisco.computers_and_peripherals.terminal;sketch=0;html=1;pointerEvents=1;dashed=0;fillColor=#036897;strokeColor=#ffffff;strokeWidth=2;verticalLabelPosition=bottom;verticalAlign=top;align=center;outlineConnect=0;" vertex="1" parent="1">
          <mxGeometry x="30" y="80" width="61" height="54" as="geometry" />
        </mxCell>
        <mxCell id="8WeOQlOgX7OYJ_pLXAzu-2268" style="rounded=0;orthogonalLoop=1;jettySize=auto;html=1;endArrow=none;endFill=0;" edge="1" parent="1" source="8WeOQlOgX7OYJ_pLXAzu-2258" target="8WeOQlOgX7OYJ_pLXAzu-2265">
          <mxGeometry relative="1" as="geometry" />
        </mxCell>
        <mxCell id="8WeOQlOgX7OYJ_pLXAzu-2258" value="" style="shape=mxgraph.cisco.computers_and_peripherals.terminal;sketch=0;html=1;pointerEvents=1;dashed=0;fillColor=#036897;strokeColor=#ffffff;strokeWidth=2;verticalLabelPosition=bottom;verticalAlign=top;align=center;outlineConnect=0;" vertex="1" parent="1">
          <mxGeometry x="30" y="190" width="61" height="54" as="geometry" />
        </mxCell>
        <mxCell id="8WeOQlOgX7OYJ_pLXAzu-2269" style="rounded=0;orthogonalLoop=1;jettySize=auto;html=1;endArrow=none;endFill=0;" edge="1" parent="1" source="8WeOQlOgX7OYJ_pLXAzu-2259" target="8WeOQlOgX7OYJ_pLXAzu-2265">
          <mxGeometry relative="1" as="geometry" />
        </mxCell>
        <mxCell id="8WeOQlOgX7OYJ_pLXAzu-2259" value="" style="shape=mxgraph.cisco.computers_and_peripherals.terminal;sketch=0;html=1;pointerEvents=1;dashed=0;fillColor=#036897;strokeColor=#ffffff;strokeWidth=2;verticalLabelPosition=bottom;verticalAlign=top;align=center;outlineConnect=0;" vertex="1" parent="1">
          <mxGeometry x="30" y="310" width="61" height="54" as="geometry" />
        </mxCell>
        <mxCell id="8WeOQlOgX7OYJ_pLXAzu-2270" style="rounded=0;orthogonalLoop=1;jettySize=auto;html=1;endArrow=none;endFill=0;" edge="1" parent="1" source="8WeOQlOgX7OYJ_pLXAzu-2260" target="8WeOQlOgX7OYJ_pLXAzu-2265">
          <mxGeometry relative="1" as="geometry" />
        </mxCell>
        <mxCell id="8WeOQlOgX7OYJ_pLXAzu-2260" value="" style="shape=mxgraph.cisco.computers_and_peripherals.terminal;sketch=0;html=1;pointerEvents=1;dashed=0;fillColor=#036897;strokeColor=#ffffff;strokeWidth=2;verticalLabelPosition=bottom;verticalAlign=top;align=center;outlineConnect=0;" vertex="1" parent="1">
          <mxGeometry x="30" y="440" width="61" height="54" as="geometry" />
        </mxCell>
        <mxCell id="8WeOQlOgX7OYJ_pLXAzu-2261" value="" style="shape=mxgraph.cisco.computers_and_peripherals.terminal;sketch=0;html=1;pointerEvents=1;dashed=0;fillColor=#036897;strokeColor=#ffffff;strokeWidth=2;verticalLabelPosition=bottom;verticalAlign=top;align=center;outlineConnect=0;" vertex="1" parent="1">
          <mxGeometry x="730" y="70" width="61" height="54" as="geometry" />
        </mxCell>
        <mxCell id="8WeOQlOgX7OYJ_pLXAzu-2281" style="rounded=0;orthogonalLoop=1;jettySize=auto;html=1;endArrow=none;endFill=0;" edge="1" parent="1" source="8WeOQlOgX7OYJ_pLXAzu-2262" target="8WeOQlOgX7OYJ_pLXAzu-2266">
          <mxGeometry relative="1" as="geometry" />
        </mxCell>
        <mxCell id="8WeOQlOgX7OYJ_pLXAzu-2262" value="" style="shape=mxgraph.cisco.computers_and_peripherals.terminal;sketch=0;html=1;pointerEvents=1;dashed=0;fillColor=#036897;strokeColor=#ffffff;strokeWidth=2;verticalLabelPosition=bottom;verticalAlign=top;align=center;outlineConnect=0;" vertex="1" parent="1">
          <mxGeometry x="730" y="180" width="61" height="54" as="geometry" />
        </mxCell>
        <mxCell id="8WeOQlOgX7OYJ_pLXAzu-2263" value="" style="shape=mxgraph.cisco.computers_and_peripherals.terminal;sketch=0;html=1;pointerEvents=1;dashed=0;fillColor=#036897;strokeColor=#ffffff;strokeWidth=2;verticalLabelPosition=bottom;verticalAlign=top;align=center;outlineConnect=0;" vertex="1" parent="1">
          <mxGeometry x="730" y="300" width="61" height="54" as="geometry" />
        </mxCell>
        <mxCell id="8WeOQlOgX7OYJ_pLXAzu-2283" style="rounded=0;orthogonalLoop=1;jettySize=auto;html=1;endArrow=none;endFill=0;" edge="1" parent="1" source="8WeOQlOgX7OYJ_pLXAzu-2264" target="8WeOQlOgX7OYJ_pLXAzu-2266">
          <mxGeometry relative="1" as="geometry" />
        </mxCell>
        <mxCell id="8WeOQlOgX7OYJ_pLXAzu-2264" value="" style="shape=mxgraph.cisco.computers_and_peripherals.terminal;sketch=0;html=1;pointerEvents=1;dashed=0;fillColor=#036897;strokeColor=#ffffff;strokeWidth=2;verticalLabelPosition=bottom;verticalAlign=top;align=center;outlineConnect=0;" vertex="1" parent="1">
          <mxGeometry x="730" y="430" width="61" height="54" as="geometry" />
        </mxCell>
        <mxCell id="8WeOQlOgX7OYJ_pLXAzu-2265" value="" style="shape=mxgraph.cisco.switches.workgroup_switch;sketch=0;html=1;pointerEvents=1;dashed=0;fillColor=#036897;strokeColor=#ffffff;strokeWidth=2;verticalLabelPosition=bottom;verticalAlign=top;align=center;outlineConnect=0;" vertex="1" parent="1">
          <mxGeometry x="220" y="220" width="101" height="50" as="geometry" />
        </mxCell>
        <mxCell id="8WeOQlOgX7OYJ_pLXAzu-2266" value="" style="shape=mxgraph.cisco.switches.workgroup_switch;sketch=0;html=1;pointerEvents=1;dashed=0;fillColor=#036897;strokeColor=#ffffff;strokeWidth=2;verticalLabelPosition=bottom;verticalAlign=top;align=center;outlineConnect=0;" vertex="1" parent="1">
          <mxGeometry x="500" y="220" width="101" height="50" as="geometry" />
        </mxCell>
        <mxCell id="8WeOQlOgX7OYJ_pLXAzu-2274" value="" style="endArrow=none;html=1;rounded=0;" edge="1" parent="1">
          <mxGeometry width="50" height="50" relative="1" as="geometry">
            <mxPoint x="321" y="220" as="sourcePoint" />
            <mxPoint x="491" y="220" as="targetPoint" />
          </mxGeometry>
        </mxCell>
        <mxCell id="8WeOQlOgX7OYJ_pLXAzu-2275" value="" style="endArrow=none;html=1;rounded=0;" edge="1" parent="1">
          <mxGeometry width="50" height="50" relative="1" as="geometry">
            <mxPoint x="321" y="243.5" as="sourcePoint" />
            <mxPoint x="491" y="243.5" as="targetPoint" />
          </mxGeometry>
        </mxCell>
        <mxCell id="8WeOQlOgX7OYJ_pLXAzu-2276" value="" style="endArrow=none;html=1;rounded=0;" edge="1" parent="1">
          <mxGeometry width="50" height="50" relative="1" as="geometry">
            <mxPoint x="321" y="260" as="sourcePoint" />
            <mxPoint x="491" y="260" as="targetPoint" />
          </mxGeometry>
        </mxCell>
        <mxCell id="8WeOQlOgX7OYJ_pLXAzu-2277" value="" style="endArrow=none;html=1;rounded=0;" edge="1" parent="1">
          <mxGeometry width="50" height="50" relative="1" as="geometry">
            <mxPoint x="321" y="280" as="sourcePoint" />
            <mxPoint x="491" y="280" as="targetPoint" />
          </mxGeometry>
        </mxCell>
        <mxCell id="8WeOQlOgX7OYJ_pLXAzu-2280" style="rounded=0;orthogonalLoop=1;jettySize=auto;html=1;endArrow=none;endFill=0;" edge="1" parent="1" source="8WeOQlOgX7OYJ_pLXAzu-2261" target="8WeOQlOgX7OYJ_pLXAzu-2266">
          <mxGeometry relative="1" as="geometry" />
        </mxCell>
        <mxCell id="8WeOQlOgX7OYJ_pLXAzu-2282" style="rounded=0;orthogonalLoop=1;jettySize=auto;html=1;endArrow=none;endFill=0;" edge="1" parent="1" source="8WeOQlOgX7OYJ_pLXAzu-2263" target="8WeOQlOgX7OYJ_pLXAzu-2266">
          <mxGeometry relative="1" as="geometry" />
        </mxCell>
        <mxCell id="8WeOQlOgX7OYJ_pLXAzu-2284" value="h1" style="text;html=1;align=center;verticalAlign=middle;whiteSpace=wrap;rounded=0;" vertex="1" parent="1">
          <mxGeometry x="30" y="134" width="60" height="30" as="geometry" />
        </mxCell>
        <mxCell id="8WeOQlOgX7OYJ_pLXAzu-2285" value="h2" style="text;html=1;align=center;verticalAlign=middle;whiteSpace=wrap;rounded=0;" vertex="1" parent="1">
          <mxGeometry x="30" y="240" width="60" height="30" as="geometry" />
        </mxCell>
        <mxCell id="8WeOQlOgX7OYJ_pLXAzu-2286" value="h3" style="text;html=1;align=center;verticalAlign=middle;whiteSpace=wrap;rounded=0;" vertex="1" parent="1">
          <mxGeometry x="30" y="364" width="60" height="30" as="geometry" />
        </mxCell>
        <mxCell id="8WeOQlOgX7OYJ_pLXAzu-2287" value="h4" style="text;html=1;align=center;verticalAlign=middle;whiteSpace=wrap;rounded=0;" vertex="1" parent="1">
          <mxGeometry x="30.5" y="494" width="60" height="30" as="geometry" />
        </mxCell>
        <mxCell id="8WeOQlOgX7OYJ_pLXAzu-2288" value="h5" style="text;html=1;align=center;verticalAlign=middle;whiteSpace=wrap;rounded=0;" vertex="1" parent="1">
          <mxGeometry x="730" y="124" width="60" height="30" as="geometry" />
        </mxCell>
        <mxCell id="8WeOQlOgX7OYJ_pLXAzu-2289" value="h6" style="text;html=1;align=center;verticalAlign=middle;whiteSpace=wrap;rounded=0;" vertex="1" parent="1">
          <mxGeometry x="730" y="234" width="60" height="30" as="geometry" />
        </mxCell>
        <mxCell id="8WeOQlOgX7OYJ_pLXAzu-2290" value="h7" style="text;html=1;align=center;verticalAlign=middle;whiteSpace=wrap;rounded=0;" vertex="1" parent="1">
          <mxGeometry x="730" y="354" width="60" height="30" as="geometry" />
        </mxCell>
        <mxCell id="8WeOQlOgX7OYJ_pLXAzu-2291" value="h8" style="text;html=1;align=center;verticalAlign=middle;whiteSpace=wrap;rounded=0;" vertex="1" parent="1">
          <mxGeometry x="730" y="484" width="60" height="30" as="geometry" />
        </mxCell>
        <mxCell id="8WeOQlOgX7OYJ_pLXAzu-2292" value="1" style="text;html=1;align=center;verticalAlign=middle;whiteSpace=wrap;rounded=0;" vertex="1" parent="1">
          <mxGeometry x="200" y="190" width="60" height="30" as="geometry" />
        </mxCell>
        <mxCell id="8WeOQlOgX7OYJ_pLXAzu-2293" value="2" style="text;html=1;align=center;verticalAlign=middle;whiteSpace=wrap;rounded=0;" vertex="1" parent="1">
          <mxGeometry x="180" y="214" width="60" height="30" as="geometry" />
        </mxCell>
        <mxCell id="8WeOQlOgX7OYJ_pLXAzu-2296" value="3" style="text;html=1;align=center;verticalAlign=middle;whiteSpace=wrap;rounded=0;" vertex="1" parent="1">
          <mxGeometry x="170" y="244" width="60" height="30" as="geometry" />
        </mxCell>
        <mxCell id="8WeOQlOgX7OYJ_pLXAzu-2297" value="4" style="text;html=1;align=center;verticalAlign=middle;whiteSpace=wrap;rounded=0;" vertex="1" parent="1">
          <mxGeometry x="180" y="274" width="60" height="30" as="geometry" />
        </mxCell>
        <mxCell id="8WeOQlOgX7OYJ_pLXAzu-2298" value="1" style="text;html=1;align=center;verticalAlign=middle;whiteSpace=wrap;rounded=0;" vertex="1" parent="1">
          <mxGeometry x="570" y="184" width="60" height="30" as="geometry" />
        </mxCell>
        <mxCell id="8WeOQlOgX7OYJ_pLXAzu-2299" value="2" style="text;html=1;align=center;verticalAlign=middle;whiteSpace=wrap;rounded=0;" vertex="1" parent="1">
          <mxGeometry x="590" y="210" width="60" height="30" as="geometry" />
        </mxCell>
        <mxCell id="8WeOQlOgX7OYJ_pLXAzu-2300" value="3" style="text;html=1;align=center;verticalAlign=middle;whiteSpace=wrap;rounded=0;" vertex="1" parent="1">
          <mxGeometry x="580" y="240" width="60" height="30" as="geometry" />
        </mxCell>
        <mxCell id="8WeOQlOgX7OYJ_pLXAzu-2301" value="4" style="text;html=1;align=center;verticalAlign=middle;whiteSpace=wrap;rounded=0;" vertex="1" parent="1">
          <mxGeometry x="570" y="270" width="60" height="30" as="geometry" />
        </mxCell>
        <mxCell id="8WeOQlOgX7OYJ_pLXAzu-2302" value="8" style="text;html=1;align=center;verticalAlign=middle;whiteSpace=wrap;rounded=0;" vertex="1" parent="1">
          <mxGeometry x="300" y="260" width="60" height="30" as="geometry" />
        </mxCell>
        <mxCell id="8WeOQlOgX7OYJ_pLXAzu-2303" value="6" style="text;html=1;align=center;verticalAlign=middle;whiteSpace=wrap;rounded=0;" vertex="1" parent="1">
          <mxGeometry x="300" y="220" width="60" height="30" as="geometry" />
        </mxCell>
        <mxCell id="8WeOQlOgX7OYJ_pLXAzu-2304" value="7" style="text;html=1;align=center;verticalAlign=middle;whiteSpace=wrap;rounded=0;" vertex="1" parent="1">
          <mxGeometry x="300" y="240" width="60" height="30" as="geometry" />
        </mxCell>
        <mxCell id="8WeOQlOgX7OYJ_pLXAzu-2305" value="5" style="text;html=1;align=center;verticalAlign=middle;whiteSpace=wrap;rounded=0;" vertex="1" parent="1">
          <mxGeometry x="300" y="200" width="60" height="30" as="geometry" />
        </mxCell>
        <mxCell id="8WeOQlOgX7OYJ_pLXAzu-2306" value="8" style="text;html=1;align=center;verticalAlign=middle;whiteSpace=wrap;rounded=0;" vertex="1" parent="1">
          <mxGeometry x="450" y="260" width="60" height="30" as="geometry" />
        </mxCell>
        <mxCell id="8WeOQlOgX7OYJ_pLXAzu-2307" value="6" style="text;html=1;align=center;verticalAlign=middle;whiteSpace=wrap;rounded=0;" vertex="1" parent="1">
          <mxGeometry x="450" y="220" width="60" height="30" as="geometry" />
        </mxCell>
        <mxCell id="8WeOQlOgX7OYJ_pLXAzu-2308" value="7" style="text;html=1;align=center;verticalAlign=middle;whiteSpace=wrap;rounded=0;" vertex="1" parent="1">
          <mxGeometry x="450" y="240" width="60" height="30" as="geometry" />
        </mxCell>
        <mxCell id="8WeOQlOgX7OYJ_pLXAzu-2309" value="5" style="text;html=1;align=center;verticalAlign=middle;whiteSpace=wrap;rounded=0;" vertex="1" parent="1">
          <mxGeometry x="450" y="200" width="60" height="30" as="geometry" />
        </mxCell>
      </root>
    </mxGraphModel>
  </diagram>
</mxfile>
